<svg xmlns="http://www.w3.org/2000/svg" width="203" height="59" viewBox="0 0 203 59">
    <g fill="none" fill-rule="nonzero">
        <path fill="#00AFA0" d="M177.342 28.651c0 3.086 1.013 5.707 3.04 7.883 2.027 2.166 4.478 3.252 7.354 3.252 2.876 0 5.327-1.086 7.354-3.252 2.024-2.176 3.038-4.797 3.038-7.883 0-3.075-1.014-5.704-3.038-7.872-2.027-2.171-4.478-3.257-7.354-3.257-2.876 0-5.327 1.086-7.354 3.257-2.027 2.168-3.04 4.797-3.04 7.872zm0 26.72c0 .613-.204 1.139-.609 1.577-.409.433-.898.652-1.469.652-.569 0-1.062-.219-1.469-.652a2.247 2.247 0 0 1-.611-1.576v-26.72c0-4.3 1.422-7.976 4.262-11.018 2.84-3.045 6.272-4.566 10.29-4.566 4.016 0 7.447 1.521 10.287 4.566 2.84 3.042 4.263 6.718 4.263 11.017 0 4.31-1.423 7.983-4.263 11.025-2.84 3.043-6.271 4.564-10.287 4.564-4.018 0-7.45-1.521-10.29-4.564-.035-.038-.068-.071-.104-.114v15.81z"/>
        <path fill="#FCDE32" d="M169.042 7.022c0 .793-.28 1.47-.84 2.042-.561.567-1.231.855-2.009.855-.782 0-1.447-.288-2.008-.855-.558-.573-.84-1.25-.84-2.042 0-.793.282-1.472.84-2.045.56-.567 1.226-.855 2.008-.855.778 0 1.448.288 2.008.855.56.573.841 1.252.841 2.045z"/>
        <path fill="#00AFA0" d="M163.914 16.293c0-.637.222-1.185.67-1.638a2.167 2.167 0 0 1 1.61-.682c.626 0 1.162.226 1.608.682.448.453.67 1 .67 1.638v27.815c0 .635-.222 1.18-.67 1.633a2.176 2.176 0 0 1-1.609.682 2.176 2.176 0 0 1-1.608-.682 2.239 2.239 0 0 1-.67-1.633V16.293zM29.66 15.608c0-.607.205-1.129.607-1.561.405-.435.893-.65 1.461-.65.568 0 1.055.215 1.462.65.402.432.605.954.605 1.56v2.43c2.896-3.093 6.343-4.64 10.34-4.64 2.014 0 3.867.371 5.553 1.106.314.127.597.323.856.578.393.442.592.968.592 1.575a2.19 2.19 0 0 1-.605 1.558c-.407.432-.891.647-1.46.647-.329 0-.63-.068-.906-.217-1.225-.552-2.567-.829-4.03-.829-2.863 0-5.301 1.077-7.315 3.23-2.017 2.151-3.025 4.756-3.025 7.809V42.11c0 .604-.203 1.124-.605 1.556-.407.432-.894.649-1.462.649s-1.056-.217-1.461-.65a2.208 2.208 0 0 1-.608-1.555V15.608zM132.06 39.882c.53 0 .98.218 1.355.65.376.435.562.961.562 1.57 0 .607-.186 1.128-.562 1.561-.375.434-.826.652-1.355.652-6.39 0-9.59-3.694-9.59-11.079V17.722h-1.914c-.527 0-.98-.215-1.354-.651-.377-.434-.566-.953-.566-1.562 0-.609.189-1.132.566-1.566.373-.436.827-.651 1.354-.651h1.915V2.212c0-.61.19-1.132.565-1.563.374-.433.829-.649 1.354-.649.527 0 .976.216 1.355.65.375.43.562.952.562 1.563v11.079h3.86c.528 0 .979.215 1.356.651.375.434.562.957.562 1.566 0 .61-.187 1.128-.562 1.562-.377.436-.828.651-1.355.651h-3.861v15.514c0 4.428 1.919 6.646 5.753 6.646M78.188 26.648c-.4-2.115-1.404-3.985-3.004-5.603-2.129-2.153-4.705-3.23-7.728-3.23-3.023 0-5.602 1.077-7.73 3.23-1.603 1.618-2.605 3.488-3.002 5.603h21.464zm-2.325 10.157a2.09 2.09 0 0 1 1.545.65c.43.434.642.953.642 1.558 0 .606-.208 1.133-.628 1.574-2.82 2.482-6.144 3.726-9.966 3.726-4.224 0-7.83-1.509-10.819-4.526-2.985-3.017-4.478-6.66-4.478-10.934 0-4.264 1.493-7.91 4.478-10.927 2.988-3.02 6.595-4.528 10.819-4.528 4.221 0 7.828 1.509 10.811 4.528 2.986 3.018 4.48 6.663 4.48 10.927 0 .612-.214 1.133-.64 1.563a2.1 2.1 0 0 1-1.541.65H56.724c.397 2.115 1.4 3.985 3.002 5.604 2.128 2.149 4.707 3.226 7.73 3.226 2.728 0 5.078-.876 7.045-2.621.4-.312.853-.47 1.362-.47zm25.434-18.99c-3.023 0-5.6 1.079-7.73 3.232-2.131 2.151-3.196 4.755-3.196 7.806 0 3.06 1.065 5.659 3.195 7.817 2.131 2.149 4.708 3.228 7.73 3.228 3.023 0 5.6-1.08 7.73-3.228 2.131-2.158 3.194-4.757 3.194-7.817 0-3.05-1.063-5.655-3.193-7.806-2.13-2.153-4.708-3.232-7.73-3.232zm10.923 21.86c-3.058 3.091-6.7 4.64-10.923 4.64-4.224 0-7.831-1.511-10.817-4.526-2.985-3.02-4.478-6.663-4.478-10.936 0-4.264 1.493-7.91 4.478-10.927 2.986-3.017 6.593-4.528 10.817-4.528 4.223 0 7.83 1.51 10.813 4.528 2.986 3.017 4.48 6.663 4.48 10.927v13.254c0 .607-.214 1.127-.642 1.556a2.09 2.09 0 0 1-1.544.652c-.6 0-1.114-.217-1.541-.652a2.128 2.128 0 0 1-.643-1.556v-2.431zM138.068 15.608c0-.607.206-1.129.608-1.561.405-.435.893-.65 1.461-.65.568 0 1.052.215 1.461.65.403.432.604.954.604 1.56v2.43c2.898-3.093 6.344-4.64 10.34-4.64 2.014 0 3.867.371 5.556 1.106.309.127.594.323.853.578.393.442.594.968.594 1.575 0 .61-.203 1.129-.607 1.558-.405.432-.893.647-1.462.647-.327 0-.63-.068-.904-.217-1.224-.552-2.566-.829-4.03-.829-2.86 0-5.3 1.077-7.314 3.23-2.016 2.151-3.026 4.756-3.026 7.809V42.11c0 .604-.201 1.124-.604 1.556-.409.432-.893.649-1.46.649-.569 0-1.057-.217-1.462-.65a2.208 2.208 0 0 1-.608-1.555V15.608zM25.21 36.752c.634 0 1.182.215 1.638.645.45.436.679.956.679 1.565 0 .605-.243 1.148-.726 1.627-2.992 2.482-6.518 3.726-10.575 3.726-4.479 0-8.305-1.511-11.473-4.526C1.583 36.77 0 33.128 0 28.854c0-4.264 1.584-7.91 4.753-10.928 3.168-3.02 6.994-4.528 11.473-4.528 4.057 0 7.583 1.242 10.575 3.726.54.46.813 1.031.813 1.711 0 .605-.226 1.129-.682 1.563a2.287 2.287 0 0 1-1.638.647c-.558 0-1.05-.17-1.475-.498-2.163-1.82-4.696-2.734-7.593-2.734-3.205 0-5.938 1.079-8.199 3.232-2.26 2.151-3.39 4.756-3.39 7.809 0 3.06 1.13 5.66 3.39 7.818 2.26 2.148 4.994 3.225 8.199 3.225 2.897 0 5.42-.902 7.561-2.703.407-.296.88-.442 1.423-.442"/>
    </g>
</svg>
